:FULLY-SPECIFIED
:FORCE-ALL-JOINTS-BE-3DOF
:DEGREES
374
root 5.9706 16.0606 -15.1928 18.1955 -17.2512 15.9071
lfemur -27.3371 10.8909 -11.4123
ltibia 46.8094 0 0
lfoot -9.12679 4.46237 0
ltoes 15.593 0 0
rfemur -39.0289 -24.9559 31.5633
rtibia 78.3572 0 0
rfoot 10.0231 -3.91175 0
rtoes 40.1073 0 0
lowerback 6.3022 2.72602 -2.88192
upperback 2.73147 3.42197 -2.75692
thorax -0.410005 1.68988 -1.38447
lowerneck -5.63595 -0.912034 4.76521
upperneck 1.81734 -1.71218 3.69965
head 1.90445 -0.725703 0.357608
lclavicle -1.16503e-14 -1.8058e-14 0
lhumerus -43.6475 -22.6525 92.8803
lradius 53.7631 0 0
lwrist 21.4776 0 0
lhand -11.8933 5.65762 0
lfingers 7.12502 0 0
lthumb 14.1623 35.0245 0
rclavicle -1.16503e-14 -1.8058e-14 0
rhumerus -52.3776 25.0847 -96.2452
rradius 64.8777 0 0
rwrist 9.65985 0 0
rhand -16.5854 -14.7969 0
rfingers 7.12502 0 0
rthumb 9.64312 -776.376 0
375
root 5.91408 16.0704 -15.0553 18.0041 -18.433 15.5954
lfemur -27.4545 10.7067 -11.2878
ltibia 46.6189 0 0
lfoot -9.09611 4.96893 0
ltoes 14.9235 0 0
rfemur -38.8508 -25.0281 31.3906
rtibia 78.6667 0 0
rfoot 9.8237 -4.06332 0
rtoes 40.3299 0 0
lowerback 6.23612 2.81852 -2.77463
upperback 2.683 3.55085 -2.73824
thorax -0.427822 1.75482 -1.43391
lowerneck -5.65994 -0.757343 4.88944
upperneck 1.88548 -1.51549 3.5843
head 1.91759 -0.627279 0.306032
lclavicle -1.31645e-14 -1.73748e-14 0
lhumerus -43.7217 -22.4186 92.8689
lradius 53.6647 0 0
lwrist 21.4539 0 0
lhand -12.1913 5.59847 0
lfingers 7.12502 0 0
lthumb 13.8747 34.9878 0
rclavicle -1.31645e-14 -1.73748e-14 0
rhumerus -52.1206 24.3503 -96.0834
rradius 64.65 0 0
rwrist 9.59303 0 0
rhand -16.7387 -14.9616 0
rfingers 7.12502 0 0
rthumb 9.49543 -775.963 0
376
root 5.85825 16.0802 -14.9185 17.7962 -19.5893 15.2684
lfemur -27.5698 10.5217 -11.166
ltibia 46.431 0 0
lfoot -9.0677 5.46786 0
ltoes 14.2622 0 0
rfemur -38.6769 -25.0961 31.2172
rtibia 78.9706 0 0
rfoot 9.62654 -4.21151 0
rtoes 40.5438 0 0
lowerback 6.171 2.90954 -2.66849
upperback 2.63496 3.67771 -2.7193
thorax -0.445721 1.81874 -1.48231
lowerneck -5.68401 -0.60571 5.01127
upperneck 1.95372 -1.32271 3.47026
head 1.93091 -0.530803 0.255079
lclavicle -1.46574e-14 -1.66979e-14 0
lhumerus -43.7954 -22.1892 92.8604
lradius 53.5678 0 0
lwrist 21.4288 0 0
lhand -12.4831 5.53967 0
lfingers 7.12502 0 0
lthumb 13.5931 34.9507 0
rclavicle -1.46574e-14 -1.66979e-14 0
rhumerus -51.8637 23.6274 -95.9216
rradius 64.4297 0 0
rwrist 9.52602 0 0
rhand -16.887 -15.1241 0
rfingers 7.12502 0 0
rthumb 9.35251 -775.551 0
377
root 5.80313 16.0898 -14.7826 17.5712 -20.7188 14.9257
lfemur -27.6831 10.336 -11.047
ltibia 46.2458 0 0
lfoot -9.04162 5.95881 0
ltoes 13.6094 0 0
rfemur -38.5076 -25.1596 31.0432
rtibia 79.2686 0 0
rfoot 9.43187 -4.35623 0
rtoes 40.7489 0 0
lowerback 6.10692 2.999 -2.56356
upperback 2.58738 3.80245 -2.70009
thorax -0.463701 1.8816 -1.52962
lowerneck -5.70815 -0.45728 5.13057
upperneck 2.02206 -1.13402 3.35761
head 1.94442 -0.436365 0.204786
lclavicle -1.61279e-14 -1.60277e-14 0
lhumerus -43.8686 -21.9643 92.8549
lradius 53.4726 0 0
lwrist 21.4024 0 0
lhand -12.7685 5.48121 0
lfingers 7.12502 0 0
lthumb 13.3177 34.9134 0
rclavicle -1.61279e-14 -1.60277e-14 0
rhumerus -51.607 22.9168 -95.76
rradius 64.2172 0 0
rwrist 9.45893 0 0
rhand -17.0302 -15.2841 0
rfingers 7.12502 0 0
rthumb 9.21454 -775.14 0
378
root 5.74878 16.0994 -14.6476 17.3289 -21.8205 14.567
lfemur -27.7943 10.1499 -10.9309
ltibia 46.0636 0 0
lfoot -9.01787 6.4414 0
ltoes 12.9656 0 0
rfemur -38.3429 -25.2185 30.8687
rtibia 79.5605 0 0
rfoot 9.2399 -4.49735 0
rtoes 40.9446 0 0
lowerback 6.04394 3.08684 -2.45993
upperback 2.54028 3.92499 -2.6806
thorax -0.481763 1.94337 -1.57578
lowerneck -5.73234 -0.312196 5.24723
upperneck 2.09045 -0.949602 3.24643
head 1.95811 -0.344057 0.155191
lclavicle -1.75748e-14 -1.53646e-14 0
lhumerus -43.9413 -21.7442 92.8524
lradius 53.379 0 0
lwrist 21.3746 0 0
lhand -13.0473 5.42306 0
lfingers 7.12502 0 0
lthumb 13.0486 34.8758 0
rclavicle -1.75748e-14 -1.53646e-14 0
rhumerus -51.3508 22.2189 -95.5988
rradius 64.0128 0 0
rwrist 9.39183 0 0
rhand -17.168 -15.4415 0
rfingers 7.12502 0 0
rthumb 9.0817 -774.732 0
379
root 5.69523 16.1088 -14.5135 17.0688 -22.8933 14.1921
lfemur -27.9033 9.96316 -10.818
ltibia 45.8846 0 0
lfoot -8.99648 6.91529 0
ltoes 12.3311 0 0
rfemur -38.1831 -25.2727 30.6939
rtibia 79.8462 0 0
rfoot 9.05084 -4.63478 0
rtoes 41.1306 0 0
lowerback 5.98214 3.173 -2.35766
upperback 2.49371 4.04523 -2.66082
thorax -0.499907 2.00398 -1.62073
lowerneck -5.75656 -0.170603 5.36115
upperneck 2.15888 -0.769635 3.13679
head 1.97198 -0.25397 0.10633
lclavicle -1.89971e-14 -1.4709e-14 0
lhumerus -44.0134 -21.529 92.853
lradius 53.2873 0 0
lwrist 21.3454 0 0
lhand -13.3194 5.36521 0
lfingers 7.12502 0 0
lthumb 12.786 34.8378 0
rclavicle -1.89971e-14 -1.4709e-14 0
rhumerus -51.0952 21.5345 -95.4383
rradius 63.8167 0 0
rwrist 9.32482 0 0
rhand -17.3003 -15.5961 0
rfingers 7.12502 0 0
rthumb 8.95418 -774.328 0
380
root 5.64252 16.1182 -14.3804 16.7905 -23.936 13.8005
lfemur -28.0103 9.77604 -10.7082
ltibia 45.709 0 0
lfoot -8.97748 7.38012 0
ltoes 11.7065 0 0
rfemur -38.0284 -25.3221 30.5188
rtibia 80.1253 0 0
rfoot 8.86488 -4.7684 0
rtoes 41.3066 0 0
lowerback 5.92158 3.25741 -2.25684
upperback 2.4477 4.16308 -2.64073
thorax -0.518131 2.0634 -1.6644
lowerneck -5.7808 -0.0326457 5.47219
upperneck 2.22732 -0.594304 3.02879
head 1.98603 -0.166197 0.0582402
lclavicle -2.03936e-14 -1.40613e-14 0
lhumerus -44.0849 -21.3188 92.8566
lradius 53.1974 0 0
lwrist 21.3146 0 0
lhand -13.5845 5.30763 0
lfingers 7.12502 0 0
lthumb 12.5301 34.7994 0
rclavicle -2.03936e-14 -1.40613e-14 0
rhumerus -50.8403 20.8642 -95.2786
rradius 63.6293 0 0
rwrist 9.25797 0 0
rhand -17.4269 -15.7477 0
rfingers 7.12502 0 0
rthumb 8.83214 -773.928 0
381
root 5.5907 16.1274 -14.2483 16.4937 -24.9475 13.392
lfemur -28.115 9.58854 -10.6019
ltibia 45.5369 0 0
lfoot -8.9609 7.83553 0
ltoes 11.0919 0 0
rfemur -37.879 -25.3665 30.3437
rtibia 80.3978 0 0
rfoot 8.68224 -4.8981 0
rtoes 41.4722 0 0
lowerback 5.86234 3.34 -2.15754
upperback 2.40228 4.27845 -2.62032
thorax -0.536436 2.12158 -1.70673
lowerneck -5.80502 0.101533 5.58024
upperneck 2.29576 -0.423792 2.92249
head 2.00026 -0.0808279 0.010959
lclavicle -2.17632e-14 -1.34218e-14 0
lhumerus -44.1556 -21.1138 92.8634
lradius 53.1094 0 0
lwrist 21.2823 0 0
lhand -13.8424 5.2503 0
lfingers 7.12502 0 0
lthumb 12.2811 34.7607 0
rclavicle -2.17632e-14 -1.34218e-14 0
rhumerus -50.5865 20.2087 -95.1201
rradius 63.4509 0 0
rwrist 9.19139 0 0
rhand -17.5475 -15.8961 0
rfingers 7.12502 0 0
rthumb 8.71576 -773.534 0
